<svg width="34" height="34" viewBox="0 0 34 34" fill="none" xmlns="http://www.w3.org/2000/svg">
<g clip-path="url(#clip0_1_18)">
<path d="M33.4613 6.92278C32.2904 7.44162 31.0326 7.79218 29.7102 7.95063C31.0746 7.13423 32.0954 5.84932 32.5821 4.33564C31.3002 5.09704 29.8972 5.63299 28.4342 5.92018C27.4504 4.86971 26.1472 4.17344 24.7271 3.93947C23.307 3.7055 21.8494 3.94692 20.5805 4.62626C19.3117 5.30559 18.3027 6.38483 17.71 7.69641C17.1174 9.00799 16.9744 10.4785 17.3032 11.8797C14.7058 11.7493 12.1648 11.0742 9.8452 9.89822C7.5256 8.72223 5.47919 7.07165 3.83878 5.05359C3.27788 6.02114 2.95536 7.14294 2.95536 8.33765C2.95474 9.41317 3.21959 10.4722 3.72643 11.4208C4.23327 12.3694 4.96641 13.1783 5.86082 13.7756C4.82354 13.7426 3.80915 13.4623 2.90208 12.9581V13.0422C2.90197 14.5506 3.42376 16.0127 4.3789 17.1802C5.33404 18.3478 6.66371 19.1489 8.14228 19.4477C7.18003 19.7081 6.17119 19.7464 5.19195 19.5598C5.60911 20.8578 6.42171 21.9928 7.51599 22.8059C8.61026 23.6191 9.93143 24.0697 11.2945 24.0947C8.98059 25.9112 6.12288 26.8965 3.18113 26.8922C2.66002 26.8923 2.13936 26.8619 1.62183 26.801C4.60788 28.721 8.08386 29.7399 11.6339 29.7359C23.6511 29.7359 30.2207 19.7828 30.2207 11.1506C30.2207 10.8701 30.2137 10.5869 30.201 10.3064C31.4789 9.38229 32.5819 8.23795 33.4585 6.92699L33.4613 6.92278Z" fill="#F8F8F8"/>
</g>
<defs>
<clipPath id="clip0_1_18">
<rect width="33.6539" height="33.6539" fill="white" transform="translate(0.307861)"/>
</clipPath>
</defs>
</svg>
